<svg xmlns="http://www.w3.org/2000/svg" viewBox="0 0 32 32" width="32" height="32">
  <!-- Fundo circular -->
  <circle cx="16" cy="16" r="16" fill="#2563EB"/>
  
  <!-- Engrenagem simplificada -->
  <g fill="#FFFFFF">
    <!-- Dentes principais da engrenagem -->
    <rect x="14" y="2" width="4" height="6" rx="1"/>
    <rect x="14" y="24" width="4" height="6" rx="1"/>
    <rect x="2" y="14" width="6" height="4" rx="1"/>
    <rect x="24" y="14" width="6" height="4" rx="1"/>
    
    <!-- Dentes diagonais -->
    <rect x="6" y="6" width="4" height="4" rx="1" transform="rotate(45 8 8)"/>
    <rect x="22" y="6" width="4" height="4" rx="1" transform="rotate(45 24 8)"/>
    <rect x="6" y="22" width="4" height="4" rx="1" transform="rotate(45 8 24)"/>
    <rect x="22" y="22" width="4" height="4" rx="1" transform="rotate(45 24 24)"/>
    
    <!-- Centro da engrenagem -->
    <circle cx="16" cy="16" r="5" fill="#2563EB"/>
    <circle cx="16" cy="16" r="3" fill="#FFFFFF"/>
    
    <!-- Circuitos nos cantos -->
    <circle cx="6" cy="6" r="1.5"/>
    <circle cx="26" cy="6" r="1.5"/>
    <circle cx="6" cy="26" r="1.5"/>
    <circle cx="26" cy="26" r="1.5"/>
  </g>
</svg>